<svg width="30" height="31" viewBox="0 0 30 31" fill="none" xmlns="http://www.w3.org/2000/svg">
<g id="List - Social media links &#226;&#134;&#146; Item &#226;&#134;&#146; Link - facebook">
<path id="Vector" fill-rule="evenodd" clip-rule="evenodd" d="M15 30.3101C23.2843 30.3101 30 23.5943 30 15.3101C30 7.0258 23.2843 0.310059 15 0.310059C6.71574 0.310059 0 7.0258 0 15.3101C0 23.5943 6.71574 30.3101 15 30.3101ZM16.0293 8.11444C15.2745 8.13547 14.478 8.31718 13.9154 8.85175C13.4507 9.28153 13.2167 9.90706 13.1641 10.5323C13.148 10.9796 13.1503 11.428 13.1526 11.8762C13.1543 12.2124 13.1561 12.5484 13.1501 12.8838C12.9434 12.8853 12.7361 12.8849 12.5288 12.8845C12.2522 12.8839 11.9756 12.8833 11.7 12.8873C11.7 13.155 11.7004 13.423 11.7008 13.6913C11.7016 14.2286 11.7023 14.7668 11.7 15.3052C11.9756 15.3092 12.2523 15.3087 12.5288 15.3081C12.7362 15.3077 12.9434 15.3072 13.1501 15.3087C13.1547 16.3757 13.1539 17.4426 13.153 18.5094C13.1519 19.843 13.1508 21.1765 13.1606 22.5101C13.7276 22.506 14.2935 22.5066 14.8595 22.5072C15.2841 22.5076 15.7087 22.508 16.1341 22.5065C16.1376 21.3063 16.1367 20.107 16.1358 18.9077C16.1349 17.7083 16.1341 16.5089 16.1376 15.3087C16.4236 15.3072 16.7096 15.3077 16.9956 15.3081C17.377 15.3087 17.7583 15.3092 18.1397 15.3052C18.2585 14.5015 18.3597 13.6908 18.4156 12.8768C18.0383 12.8751 17.661 12.8751 17.2836 12.8751C16.9063 12.8751 16.5289 12.8751 16.1516 12.8733C16.1516 12.7326 16.1514 12.592 16.1512 12.4513C16.1505 12.0294 16.1498 11.6076 16.1551 11.1857C16.2145 10.8607 16.5498 10.6126 16.8749 10.6336H18.4191C18.4226 9.79153 18.4226 8.953 18.4191 8.11093C18.2201 8.11093 18.0209 8.11072 17.8218 8.11051C17.2243 8.10985 16.6268 8.10919 16.0293 8.11444Z" fill="#DB9809"/>
</g>
</svg>
