<svg width="35" height="36" viewBox="0 0 35 36" fill="none" xmlns="http://www.w3.org/2000/svg">
<g id="Frame">
<path id="Vector" d="M17.57 1.47485C8.225 1.47485 0.595001 9.10485 0.595001 18.4499C0.595001 27.7949 8.225 35.4249 17.57 35.4249C26.915 35.4249 34.51 27.7949 34.545 18.4499C34.545 9.10485 26.915 1.47485 17.57 1.47485ZM15.015 26.4649L7.945 19.4299L9.415 17.9249L14.945 23.4199L26.18 11.0299L27.72 12.4299L15.015 26.4649Z" fill="#DB9809"/>
<path id="Vector_2" d="M17.57 1.47485C8.225 1.47485 0.595001 9.10485 0.595001 18.4499C0.595001 27.7949 8.225 35.4249 17.57 35.4249C26.915 35.4249 34.51 27.7949 34.545 18.4499C34.545 9.10485 26.915 1.47485 17.57 1.47485ZM15.015 26.4649L7.945 19.4299L9.415 17.9249L14.945 23.4199L26.18 11.0299L27.72 12.4299L15.015 26.4649Z" fill="#DB9809"/>
</g>
</svg>
